<svg width="83" height="24" viewBox="0 0 83 24" fill="none" xmlns="http://www.w3.org/2000/svg">
<g clip-path="url(#clip0_3_226)">
<path d="M0 8.00159H24V15.9985H0V8.00159Z" fill="white"/>
<path d="M0 0H24V8.00156H0V0Z" fill="#CE1126"/>
<path d="M0 15.9984H24V24H0V15.9984Z" fill="black"/>
<path d="M6.65467 14.314C6.75142 14.314 6.82986 14.2356 6.82986 14.1388C6.82986 14.0421 6.75142 13.9636 6.65467 13.9636C6.55792 13.9636 6.47949 14.0421 6.47949 14.1388C6.47949 14.2356 6.55792 14.314 6.65467 14.314Z" fill="#007A3D"/>
</g>
<path d="M32.784 13.696V12.198H35.416V9.776H36.942V12.198H39.56V13.696H36.942V16.118H35.416V13.696H32.784ZM41.2675 17V15.698C41.8648 15.2033 42.4435 14.7133 43.0035 14.228C43.5728 13.7427 44.0768 13.262 44.5155 12.786C44.9635 12.31 45.3182 11.848 45.5795 11.4C45.8502 10.9427 45.9855 10.4993 45.9855 10.07C45.9855 9.66867 45.8735 9.314 45.6495 9.006C45.4348 8.698 45.0755 8.544 44.5715 8.544C44.0582 8.544 43.6708 8.712 43.4095 9.048C43.1482 9.384 43.0175 9.79 43.0175 10.266H41.2815C41.3002 9.54733 41.4588 8.95 41.7575 8.474C42.0562 7.98867 42.4528 7.62933 42.9475 7.396C43.4422 7.15333 43.9975 7.032 44.6135 7.032C45.6122 7.032 46.3868 7.30733 46.9375 7.858C47.4975 8.39933 47.7775 9.104 47.7775 9.972C47.7775 10.5133 47.6515 11.0407 47.3995 11.554C47.1568 12.0673 46.8348 12.562 46.4335 13.038C46.0322 13.514 45.5982 13.962 45.1315 14.382C44.6648 14.7927 44.2122 15.1753 43.7735 15.53H48.0155V17H41.2675ZM53.6532 17.168C52.7479 17.168 51.9732 16.958 51.3292 16.538C50.6852 16.1087 50.1859 15.516 49.8312 14.76C49.4859 13.9947 49.3132 13.108 49.3132 12.1C49.3132 11.1013 49.4859 10.2193 49.8312 9.454C50.1859 8.68867 50.6852 8.096 51.3292 7.676C51.9732 7.24667 52.7479 7.032 53.6532 7.032C54.5585 7.032 55.3332 7.24667 55.9772 7.676C56.6212 8.096 57.1159 8.68867 57.4612 9.454C57.8159 10.2193 57.9932 11.1013 57.9932 12.1C57.9932 13.108 57.8159 13.9947 57.4612 14.76C57.1159 15.516 56.6212 16.1087 55.9772 16.538C55.3332 16.958 54.5585 17.168 53.6532 17.168ZM53.6532 15.558C54.3905 15.558 54.9925 15.25 55.4592 14.634C55.9259 14.018 56.1592 13.1733 56.1592 12.1C56.1592 11.0267 55.9259 10.182 55.4592 9.566C54.9925 8.95 54.3905 8.642 53.6532 8.642C52.9065 8.642 52.2999 8.95 51.8332 9.566C51.3759 10.182 51.1472 11.0267 51.1472 12.1C51.1472 13.1733 51.3759 14.018 51.8332 14.634C52.2999 15.25 52.9065 15.558 53.6532 15.558Z" fill="#7F7F7F"/>
<path d="M65 9L71 15L77 9" stroke="#7F7F7F" stroke-width="1.5" stroke-linecap="round" stroke-linejoin="round"/>
<defs>
<clipPath id="clip0_3_226">
<rect width="24" height="24" rx="8" fill="white"/>
</clipPath>
</defs>
</svg>
