<svg width="713" height="259" viewBox="0 0 713 259" fill="none" xmlns="http://www.w3.org/2000/svg">
<path d="M72.634 198.359C67.0581 198.359 62.3626 196.743 58.5474 193.511C54.7323 189.984 52.8248 185.429 52.8248 179.846V64.7974C52.8248 55.9814 48.4227 51.5734 39.6186 51.5734H18.0485C12.766 51.5734 8.36392 49.9572 4.84227 46.7247C1.61409 43.1983 0 38.7903 0 33.5007C0 28.2111 1.61409 23.9501 4.84227 20.7175C8.36392 17.1911 12.766 15.4279 18.0485 15.4279H126.779C132.355 15.4279 136.757 17.1911 139.986 20.7175C143.507 23.9501 145.268 28.2111 145.268 33.5007C145.268 38.7903 143.507 43.1983 139.986 46.7247C136.757 49.9572 132.355 51.5734 126.779 51.5734H105.649C96.8454 51.5734 92.4433 55.9814 92.4433 64.7974V179.846C92.4433 185.429 90.5358 189.984 86.7206 193.511C83.199 196.743 78.5035 198.359 72.634 198.359Z" fill="black"/>
<path d="M213.156 198.359C193.494 198.359 177.499 192.188 165.174 179.846C153.141 167.21 147.125 150.459 147.125 129.595C147.125 108.73 152.995 92.2738 164.733 80.2253C176.766 67.883 192.466 61.7118 211.836 61.7118C225.629 61.7118 237.661 66.5606 247.932 76.2582C249.106 72.7318 251.307 69.7931 254.536 67.4422C257.764 65.0913 261.579 63.9158 265.981 63.9158C271.85 63.9158 276.546 65.679 280.068 69.2054C283.883 72.4379 285.79 76.4051 285.79 81.1069V181.168C285.79 186.164 283.883 190.278 280.068 193.511C276.546 196.743 271.85 198.359 265.981 198.359C256.296 198.359 250.28 194.098 247.932 185.576C238.541 194.098 226.949 198.359 213.156 198.359ZM216.238 162.655C225.629 162.655 233.112 159.569 238.688 153.398C244.264 146.933 247.052 138.998 247.052 129.595C247.052 119.897 244.264 112.11 238.688 106.232C233.112 100.355 225.629 97.4165 216.238 97.4165C207.14 97.4165 199.656 100.355 193.787 106.232C188.211 112.11 185.423 119.897 185.423 129.595C185.423 138.998 188.211 146.933 193.787 153.398C199.656 159.569 207.14 162.655 216.238 162.655Z" fill="black"/>
<path d="M364.639 198.359C344.683 198.359 328.248 194.245 315.336 186.017C312.694 184.254 310.787 182.197 309.613 179.846C308.439 177.201 307.852 174.703 307.852 172.352C307.852 167.357 309.466 162.802 312.694 158.687C316.216 154.573 320.471 152.516 325.46 152.516C327.808 152.516 330.156 153.104 332.504 154.28C337.786 156.63 343.802 158.687 350.552 160.451C357.302 161.92 363.465 162.655 369.041 162.655C379.899 162.655 385.328 160.157 385.328 155.161C385.328 152.222 384.008 149.725 381.367 147.668C378.725 145.317 372.562 143.7 362.878 142.819C359.063 142.525 354.074 141.937 347.911 141.056C342.041 140.174 336.172 138.558 330.303 136.207C324.433 133.562 319.444 129.742 315.336 124.746C311.52 119.75 309.613 112.991 309.613 104.469C309.613 91.2453 314.602 80.8131 324.58 73.1726C334.558 65.5321 347.911 61.7118 364.639 61.7118C374.323 61.7118 383.421 62.7403 391.931 64.7974C400.736 66.8545 407.339 69.9401 411.741 74.0542C415.849 77.8744 417.904 82.2824 417.904 87.2781C417.904 91.6861 416.29 95.6533 413.061 99.1797C409.833 102.706 405.725 104.469 400.736 104.469C398.094 104.469 395.6 103.882 393.252 102.706C389.73 100.355 385.182 98.592 379.606 97.4165C374.323 96.241 368.894 95.6533 363.318 95.6533C352.166 95.6533 346.59 98.0042 346.59 102.706C346.59 104.763 347.617 106.673 349.672 108.436C352.019 109.906 357.155 111.228 365.079 112.404C370.068 112.991 375.791 113.873 382.247 115.048C388.703 115.93 394.866 117.693 400.736 120.338C406.898 122.689 412.034 126.656 416.143 132.24C420.251 137.823 422.306 145.464 422.306 155.161C422.306 168.385 417.023 178.964 406.458 186.899C395.893 194.539 381.953 198.359 364.639 198.359Z" fill="black"/>
<path d="M466.343 198.359C460.768 198.359 456.072 196.743 452.257 193.511C448.442 190.278 446.534 186.164 446.534 181.168V17.1911C446.534 12.4893 448.295 8.52211 451.817 5.28958C455.632 1.76319 460.474 0 466.343 0C471.919 0 476.468 1.76319 479.99 5.28958C483.512 8.52211 485.272 12.6362 485.272 17.632V93.4493C485.272 96.9757 486.3 98.7389 488.354 98.7389C488.941 98.7389 490.115 98.1512 491.875 96.9757L534.576 65.2382C538.097 62.8873 541.912 61.7118 546.021 61.7118C551.01 61.7118 555.118 63.475 558.347 67.0014C561.575 70.5278 563.189 74.6419 563.189 79.3437C563.189 85.8088 560.254 90.9514 554.385 94.7717L519.608 117.693C516.674 119.75 515.206 121.954 515.206 124.305C515.206 126.656 516.38 128.566 518.728 130.036L558.787 166.181C561.428 168.238 563.189 170.589 564.069 173.234C564.95 175.879 565.39 178.376 565.39 180.727C565.39 185.429 563.482 189.543 559.667 193.07C556.146 196.596 551.89 198.359 546.901 198.359C541.912 198.359 537.51 196.449 533.695 192.629L490.555 150.312C489.674 149.431 488.647 148.99 487.473 148.99C486.006 148.99 485.272 150.165 485.272 152.516V180.727C485.272 185.723 483.365 189.984 479.55 193.511C476.028 196.743 471.626 198.359 466.343 198.359Z" fill="black"/>
<path d="M574.332 79.3436C574.332 73.4663 576.386 69.0583 580.494 66.1197C584.603 63.181 589.299 61.7117 594.581 61.7117C598.69 61.7117 602.211 62.8871 605.146 65.2381C608.374 67.2951 610.575 70.2338 611.749 74.054L639.042 140.615C640.509 144.435 642.564 146.345 645.205 146.345C647.846 146.345 649.754 144.435 650.927 140.615L674.699 74.054C676.166 69.9399 678.514 66.8543 681.742 64.7973C685.264 62.7402 688.932 61.7117 692.747 61.7117C697.736 61.7117 702.285 63.3279 706.393 66.5605C710.796 69.793 712.997 74.054 712.997 79.3436C712.997 82.2823 712.41 85.074 711.236 87.7188L642.564 246.406C640.509 250.814 637.868 253.9 634.64 255.663C631.705 257.72 628.624 258.749 625.396 258.749C620.113 258.749 615.271 256.839 610.869 253.018C606.76 249.492 604.706 245.231 604.706 240.235C604.706 237.59 605.293 235.239 606.467 233.182L630.238 190.866C625.249 189.396 621.287 185.723 618.352 179.846L575.652 87.278C574.772 84.6332 574.332 81.9884 574.332 79.3436Z" fill="#F5F876"/>
</svg>
